<svg width="32" height="32" viewBox="0 0 32 32" fill="none" xmlns="http://www.w3.org/2000/svg">
  <!-- Shield background -->
  <path d="M16 2L28 8V16C28 22.6274 22.6274 28 16 28C9.37258 28 4 22.6274 4 16V8L16 2Z" fill="url(#gradient)" stroke="url(#strokeGradient)" stroke-width="1.5"/>
  
  <!-- Shield inner highlight -->
  <path d="M16 4L26 9V16C26 21.5228 21.5228 26 16 26C10.4772 26 6 21.5228 6 16V9L16 4Z" fill="url(#innerGradient)" opacity="0.3"/>
  
  <!-- Lock icon -->
  <rect x="12" y="14" width="8" height="6" rx="1" fill="white" opacity="0.9"/>
  <path d="M14 14V12C14 10.3431 15.3431 9 17 9C18.6569 9 20 10.3431 20 12V14" stroke="white" stroke-width="1.5" stroke-linecap="round"/>
  <circle cx="16" cy="17" r="1" fill="white" opacity="0.8"/>
  
  <!-- Gradients -->
  <defs>
    <linearGradient id="gradient" x1="0%" y1="0%" x2="100%" y2="100%">
      <stop offset="0%" style="stop-color:#3B82F6;stop-opacity:1" />
      <stop offset="100%" style="stop-color:#1D4ED8;stop-opacity:1" />
    </linearGradient>
    <linearGradient id="innerGradient" x1="0%" y1="0%" x2="100%" y2="100%">
      <stop offset="0%" style="stop-color:#60A5FA;stop-opacity:1" />
      <stop offset="100%" style="stop-color:#3B82F6;stop-opacity:1" />
    </linearGradient>
    <linearGradient id="strokeGradient" x1="0%" y1="0%" x2="100%" y2="100%">
      <stop offset="0%" style="stop-color:#1E40AF;stop-opacity:1" />
      <stop offset="100%" style="stop-color:#1E3A8A;stop-opacity:1" />
    </linearGradient>
  </defs>
</svg>
